<?xml version="1.0" encoding="utf-8" ?>
<svg baseProfile="full" height="200" version="1.1" width="200" xmlns="http://www.w3.org/2000/svg" xmlns:ev="http://www.w3.org/2001/xml-events" xmlns:xlink="http://www.w3.org/1999/xlink"><defs /><path d="M31.62,19.375 L31.62,74.975" fill="none" stroke="black" stroke-linejoin="bevel" stroke-width="12" /><path d="M25.62,25.375 L99.1,25.375" fill="none" stroke="black" stroke-linejoin="bevel" stroke-width="12" /><path d="M93.1,19.375 L93.1,74.975" fill="none" stroke="black" stroke-linejoin="bevel" stroke-width="12" /><path d="M27.739999999999995,45.675 L96.98,45.675" fill="none" stroke="black" stroke-linejoin="bevel" stroke-width="12" /><path d="M25.62,65.975 L99.1,65.975" fill="none" stroke="black" stroke-linejoin="bevel" stroke-width="12" /><path d="M62.36,72.065 L62.36,93.29" fill="none" stroke="black" stroke-linejoin="bevel" stroke-width="12" /><path d="M14.66,89.32 L110.06,89.32" fill="none" stroke="black" stroke-linejoin="bevel" stroke-width="12" /><path d="M33.739999999999995,100.575 L33.739999999999995,141.965" fill="none" stroke="black" stroke-linejoin="bevel" stroke-width="12" /><path d="M27.739999999999995,106.575 L96.98,106.575" fill="none" stroke="black" stroke-linejoin="bevel" stroke-width="12" /><path d="M90.98,100.575 L90.98,141.965" fill="none" stroke="black" stroke-linejoin="bevel" stroke-width="12" /><path d="M27.739999999999995,132.965 L96.98,132.965" fill="none" stroke="black" stroke-linejoin="bevel" stroke-width="12" /><path d="M62.36,126.965 L62.36,173.715 Q62.36,183.715 42.36,178.715" fill="none" stroke="black" stroke-linejoin="bevel" stroke-width="12" /><path d="M45.4,147.175 Q33.739999999999995,161.385 12.54,174.58" fill="none" stroke="black" stroke-linejoin="bevel" stroke-width="12" /><path d="M72.96,143.115 Q93.1,153.265 103.7,166.46" fill="none" stroke="black" stroke-linejoin="bevel" stroke-width="12" /><path d="M170.55,24.0 Q144.9,56.0 108.8,80.0" fill="none" stroke="black" stroke-linejoin="bevel" stroke-width="12" /><path d="M176.25,72.0 Q148.7,108.0 108.8,131.0" fill="none" stroke="black" stroke-linejoin="bevel" stroke-width="12" /><path d="M183.85,121.0 Q149.65,167.0 97.4,189.0" fill="none" stroke="black" stroke-linejoin="bevel" stroke-width="12" /></svg>