<?xml version="1.0" encoding="utf-8" ?>
<svg baseProfile="full" height="200" version="1.1" width="200" xmlns="http://www.w3.org/2000/svg" xmlns:ev="http://www.w3.org/2001/xml-events" xmlns:xlink="http://www.w3.org/1999/xlink"><defs /><path d="M37.620000000000005,23.375 L37.620000000000005,70.975 L25.62,76.975 L25.62,17.375" fill="black" stroke="black" stroke-width="0" /><path d="M31.62,23.375 L93.1,23.375 L93.1,27.375 L31.62,27.375" fill="black" stroke="black" stroke-width="0" /><path d="M99.1,25.375 L99.1,69.975 L87.1,75.975 L87.1,25.375" fill="black" stroke="black" stroke-width="0" /><path d="M-6.0,-2.0 L0.0,-7.0 L11.0,2.0 L6.0,6.0 L-6.0,0.0" fill="black" stroke="black" stroke-width="0" transform="translate(93.1,25.375)" /><path d="M33.739999999999995,43.675 L90.98,43.675 L90.98,47.675 L33.739999999999995,47.675" fill="black" stroke="black" stroke-width="0" /><path d="M31.62,63.974999999999994 L93.1,63.974999999999994 L93.1,67.975 L31.62,67.975" fill="black" stroke="black" stroke-width="0" /><path d="M68.36,73.065 L68.36,89.29 L56.36,89.29 L56.36,71.065" fill="black" stroke="black" stroke-width="0" /><path d="M68.36,73.065 L71.36,75.065 L66.36,78.065" fill="black" stroke="black" stroke-width="0" /><path d="M14.66,87.32 L110.06,87.32 L110.06,91.32 L14.66,91.32" fill="black" stroke="black" stroke-width="0" /><path d="M110.06,87.32 L90.06,89.32 L100.06,78.32" fill="black" stroke="black" stroke-width="0" /><path d="M39.739999999999995,104.575 L39.739999999999995,134.965 L27.739999999999995,140.965 L27.739999999999995,98.575" fill="black" stroke="black" stroke-width="0" /><path d="M33.739999999999995,104.575 L90.98,104.575 L90.98,108.575 L33.739999999999995,108.575" fill="black" stroke="black" stroke-width="0" /><path d="M96.98,106.575 L96.98,134.965 L84.98,140.965 L84.98,106.575" fill="black" stroke="black" stroke-width="0" /><path d="M-6.0,-2.0 L0.0,-7.0 L11.0,2.0 L6.0,6.0 L-6.0,0.0" fill="black" stroke="black" stroke-width="0" transform="translate(90.98,106.575)" /><path d="M33.739999999999995,130.965 L90.98,130.965 L90.98,134.965 L33.739999999999995,134.965" fill="black" stroke="black" stroke-width="0" /><path d="M68.36,130.965 L68.36,173.715 L56.36,173.715 L56.36,130.965" fill="black" stroke="black" stroke-width="0" /><path d="M 68.36,173.715 Q 67.76,179.115 62.36,179.715 Q 56.96,179.115 56.36,173.715" fill="black" stroke="black" stroke-width="0" /><path d="M68.36,173.715 L68.22330240804172,176.27758915644912 L67.78085500087201,178.77021375021803 L66.97487018010834,181.17851579147498 L65.75230176602707,183.4432011773514 L64.10264068711929,185.4576406871193 L62.08820117735138,187.10730176602706 L59.823515791475,188.32987018010834 L57.415213750218,189.135855000872 L54.92258915644908,189.57830240804174 L52.36,189.715 L52.36,177.715 L53.59741084355092,177.65169759195828 L54.504786249782,177.494144999128 L55.096484208525,177.30012981989165 L55.43179882264863,177.12269823397295 L55.617359312880716,176.9723593128807 L55.76769823397294,176.78679882264862 L55.94512981989165,176.45148420852496 L56.13914499912802,175.85978624978202 L56.29669759195829,174.95241084355095 L56.36,173.715" fill="black" stroke="black" stroke-width="0" /><path d="M0.0,0.0 L0.0,-6.0 L-16.0,-6.0 L-16.0,-3.0" fill="black" stroke="black" stroke-width="0" transform="translate(52.36,183.715)" /><path d="M49.40402485209232,151.75405939946484 L46.66499573417005,154.40971620446584 L43.734144773508206,157.00612636917208 L40.610882183038356,159.5450372653151 L37.29351481514943,162.02678047688076 L33.77907029066322,164.44962460524272 L30.062770948177754,166.8085889257144 L26.13666801876718,169.0928533579138 L21.98571364385716,171.27880264441848 L17.572205999717138,173.3034287081417 L13.015572736990615,175.3440880654946 L12.064427263009383,173.81591193450544 L15.784307334583023,170.5737324856486 L19.240339693343493,167.3058421307427 L22.5519519899343,164.1895973861987 L25.681442400624864,161.1619901749301 L28.61376306684087,158.1994052395143 L31.340965219656475,155.29102249956932 L33.858271197669666,152.43186123040863 L36.16270862170232,149.62019003340595 L38.252584344143244,146.8563404925469 L40.12730857792408,144.14205997956321" fill="black" stroke="black" stroke-width="0" /><path d="M-6.0,1.0 L6.0,0.0 L-6.0,-0.6501976451548686" fill="black" stroke="black" stroke-width="0" transform="translate(44.7656667150082,147.94805968951403) rotate(39.37055298401546,0,0)" /><path d="M6.0,0.0 L9.0,2.0 L4.0,5.0" fill="black" stroke="black" stroke-width="0" transform="translate(44.7656667150082,147.94805968951403) rotate(39.37055298401546,0,0)" /><path d="M74.2580479987163,142.76134565882967 L78.27687653971694,144.2566328197321 L82.23552232545327,145.58441114614993 L85.95615168681223,147.08330028189584 L89.46604411823397,148.69934055131648 L92.77689923554937,150.41337279840732 L95.8953339557817,152.21815347776254 L98.82542078425917,154.11228474795493 L101.56939501902094,156.09791544877342 L104.12770561191013,158.179603676332 L106.49875774088845,160.36352929082597 L97.1435687881277,167.8788762327937 L95.8156389528998,165.74344577965266 L94.25393426477679,163.5520280137542 L92.45685990172035,161.31080279529348 L90.42486481557364,159.02432822038458 L88.16018430437583,156.69475312881647 L85.66689087345507,154.32067967916186 L82.95160143983469,151.89486432601484 L80.02601561934554,149.3981479133712 L76.91741290642776,146.77657076557733 L73.44795963196832,144.36875252644586" fill="black" stroke="black" stroke-width="0" /><path d="M 0.0,-6.0 Q 5.4,-5.4 6.0,0.0 Q 5.4,5.4 0.0,6.0" fill="black" stroke="black" stroke-width="0" transform="translate(101.82116326450807,164.12120276180983) rotate(51.22388213411415,0,0)" /><path d="M174.60620424295314,28.532902727772687 L169.13127746113904,34.65567000792701 L163.43133285279384,40.60173114775938 L157.5061076399029,46.36801967672367 L151.35470972714194,51.95046120653774 L144.97522045246222,57.343275699519424 L138.3639141359209,62.53761779513882 L131.51349236204902,67.51855961293931 L124.40817753879652,72.25691606919925 L117.00405794436946,76.67744333141589 L109.29827155336974,80.749483461527 L108.30172844663025,79.250516538473 L114.81443329232044,73.57816214327899 L121.18578740796308,67.96550582958021 L127.41292876816009,62.38188965931444 L133.45194565111754,56.75206979997893 L139.28706046478533,51.046861167852086 L144.9109747936945,45.251335882477235 L150.31996295790225,39.35664858332449 L155.51210629535996,33.35701923271169 L160.48651271074297,27.24837344235668 L165.24291942603702,21.02764474171334" fill="black" stroke="black" stroke-width="0" /><path d="M-6.0,1.0 L6.0,0.0 L-6.0,-0.6793620059109946" fill="black" stroke="black" stroke-width="0" transform="translate(169.92456183449508,24.780273734743012) rotate(38.714354867002626,0,0)" /><path d="M6.0,0.0 L9.0,2.0 L4.0,5.0" fill="black" stroke="black" stroke-width="0" transform="translate(169.92456183449508,24.780273734743012) rotate(38.714354867002626,0,0)" /><path d="M180.40709514527992,76.44055851814726 L174.50228103697953,83.35092986812506 L168.33322437586693,89.98135354483783 L161.90078417337452,96.32788277381671 L155.20540168028305,102.38563955992015 L148.24673495920595,108.14810675888427 L141.0229636869575,113.60572170718106 L133.52924375693567,118.74273243956722 L125.75342751250044,123.52866683044014 L117.6588060448274,127.88516349163459 L109.24946821728722,131.7797296465113 L108.35053178271278,130.2202703534887 L115.64203922221927,124.67071928100859 L122.72995355568635,119.09486426013247 L129.61836364648462,113.46021251422113 L136.27056058578972,107.68840265510934 L142.67439671696152,101.74896255719446 L148.8250279333982,95.62614025523325 L154.7206339119138,89.31037308569758 L160.36087271512199,82.79514390432378 L165.74618559380326,76.07557471597008 L170.87743155939017,69.14771874616771" fill="black" stroke="black" stroke-width="0" /><path d="M-6.0,1.0 L6.0,0.0 L-6.0,-0.7366210147149941" fill="black" stroke="black" stroke-width="0" transform="translate(175.64226335233505,72.79413863215748) rotate(37.42602716891264,0,0)" /><path d="M6.0,0.0 L9.0,2.0 L4.0,5.0" fill="black" stroke="black" stroke-width="0" transform="translate(175.64226335233505,72.79413863215748) rotate(37.42602716891264,0,0)" /><path d="M188.06838591265225,125.38237610115073 L180.732233356999,134.23809537960608 L173.01462966307943,142.58808889785323 L164.91855763630983,150.42656503296013 L156.44714118646937,157.74701668933943 L147.60330417642857,164.54157759868866 L138.38917841172622,170.79961093385023 L128.80490817809059,176.50441864594544 L118.84551314116882,181.62419298045208 L108.48829623383239,186.0767574804565 L97.74925130005232,189.82947183762425 L97.05074869994769,188.17052816237575 L106.83877086308965,182.65929262309865 L116.26275524651928,176.92000743376863 L125.33869569420766,170.92003228605105 L134.04389513902618,164.5771907230325 L142.3733732466221,157.85967499019057 L150.3272743027236,150.7507870386467 L157.90773011286942,143.23989004124314 L165.11766453993036,135.31911772967774 L171.96020149368516,126.98196300836264 L178.43832377955036,118.22263425436626" fill="black" stroke="black" stroke-width="0" /><path d="M-6.0,1.0 L6.0,0.0 L-6.0,-0.7719999795823727" fill="black" stroke="black" stroke-width="0" transform="translate(183.2533548461013,121.80250517775849) rotate(36.63000045939661,0,0)" /><path d="M6.0,0.0 L9.0,2.0 L4.0,5.0" fill="black" stroke="black" stroke-width="0" transform="translate(183.2533548461013,121.80250517775849) rotate(36.63000045939661,0,0)" /></svg>